# xmcd
#
# Track frame offsets: 
#        150
#        6182
#        21475
#        40102
#        63005
#        122377
#        154647
#        199670
#
# Disc length: 3218 seconds
#
# Revision: 0
# Processed by: cddbd v1.4PL0 Copyright (c) Steve Scherf et al.
# Submitted via: ExactAudioCopy v0.90b4
#
DISCID=580c9008
DTITLE=Johnny Winter - Liberty Hall Sessions feat. Jimmy Reed
DYEAR=1900
DGENRE=Blues
TTITLE0=My Baby
TTITLE1=Low Down Gal Of Mine
TTITLE2=Leavin' Blues
TTITLE3=Funky Junky
TTITLE4=Big Boss Man
TTITLE5=Stop Light
TTITLE6=Untitled
TTITLE7=Bright Lights, Big City
EXTD=
EXTT0=
EXTT1=
EXTT2=
EXTT3=
EXTT4=
EXTT5=
EXTT6=
EXTT7=
PLAYORDER=
